#!OML:ASF C:\ViconDB\ViconDB\414\Spring2016\041811\Spring2016.ASF
:FULLY-SPECIFIED
:DEGREES
323
root 10.1784 17.4068 1.6237 -97.0712 31.1941 122.571
lowerback 23.6529 0.616479 16.3086
upperback 1.83847 5.37143 10.3822
thorax -10.7524 1.74059 0.962186
lowerneck -16.6063 -11.372 -21.9249
upperneck 8.43894 -15.5909 29.4696
head 10.0392 -5.91428 12.0245
rclavicle -1.33583e-013 -1.01778e-013
rhumerus 60.0839 -41.9988 -35.6057
rradius 37.0873
rwrist 19.645
rhand -65.4994 -69.5155
rfingers 7.12502
rthumb -37.3699 95.4834
lclavicle -1.33583e-013 -1.01778e-013
lhumerus 59.2212 40.6456 4.87946
lradius 39.635
lwrist -7.22442
lhand -47.7807 30.9001
lfingers 7.12502
lthumb -20.4576 59.8424
rfemur 222.143 43.3118 -196.219
rtibia 35.0387
rfoot 28.7742 -48.345
rtoes -38.622
lfemur 23.0395 -5.82225 -7.35428
ltibia -3.18055e-014
lfoot 41.48 5.78152
ltoes -0.355429
324
root 10.1996 17.3854 1.33867 -96.7188 33.0775 122.472
lowerback 23.351 0.344034 15.8519
upperback 1.76338 4.87979 10.2878
thorax -10.7534 1.55236 1.24881
lowerneck -16.9157 -10.7865 -21.5787
upperneck 9.21149 -14.8111 28.8995
head 10.0145 -5.56098 11.9244
rclavicle 3.81667e-014 -1.145e-013
rhumerus 61.2141 -40.4219 -36.3502
rradius 37.1213
rwrist 20.3592
rhand -65.372 -71.3384
rfingers 7.12502
rthumb -37.2495 97.338
lclavicle 3.81667e-014 -1.145e-013
lhumerus 60.6438 39.3416 5.41032
lradius 38.9422
lwrist -8.42523
lhand -47.695 30.7674
lfingers 7.12502
lthumb -20.3753 59.7185
rfemur 222.427 44.4331 -193.611
rtibia 35.7261
rfoot 26.8304 -48.785
rtoes -35.0288
lfemur 23.9169 -7.07892 -7.42475
ltibia 5.40694e-014
lfoot 41.48 5.78152
ltoes -0.355429
325
root 10.2165 17.3667 1.048 -95.8033 35.0175 123.049
lowerback 22.9791 0.326186 15.3281
upperback 1.68695 4.67741 10.2751
thorax -10.6991 1.49814 1.57738
lowerneck -17.511 -10.2815 -21.1127
upperneck 10.2603 -14.091 27.925
head 10.1011 -5.2284 11.6173
rclavicle 6.36111e-014 -1.145e-013
rhumerus 61.9236 -38.7696 -36.252
rradius 37.2596
rwrist 20.5301
rhand -65.3363 -72.9056
rfingers 7.12502
rthumb -37.2158 98.914
lclavicle 6.36111e-014 -1.145e-013
lhumerus 60.9766 37.9688 5.2814
lradius 38.7645
lwrist -8.88391
lhand -47.5772 30.8566
lfingers 7.12502
lthumb -20.2621 59.8197
rfemur 223.129 44.9744 -190.966
rtibia 36.3327
rfoot 23.9394 -49.5812
rtoes -31.9223
lfemur 24.6713 -7.72804 -7.66156
ltibia -1.59028e-014
lfoot 41.48 5.78152
ltoes -0.355429
326
root 10.2258 17.3603 0.752123 -94.3787 37.1421 123.82
lowerback 22.3102 0.353156 14.745
upperback 1.47035 4.48777 10.1518
thorax -10.6341 1.44937 1.81178
lowerneck -18.0798 -9.59658 -20.5433
upperneck 11.4497 -13.2876 27.3017
head 10.26 -4.83862 11.4768
rclavicle 3.18055e-015 -3.49861e-014
rhumerus 61.9099 -36.9432 -35.3295
rradius 37.5793
rwrist 20.327
rhand -65.6129 -75.5411
rfingers 7.12502
rthumb -37.4772 101.481
lclavicle 3.18055e-015 -3.49861e-014
lhumerus 61.1324 36.4932 5.14057
lradius 38.3793
lwrist -9.47463
lhand -47.2444 30.8989
lfingers 7.12502
lthumb -19.9422 59.8957
rfemur 224.097 45.4372 -188.677
rtibia 36.8196
rfoot 21.3687 -50.4852
rtoes -28.8539
lfemur 21.2316 -7.66596 -8.05024
ltibia 6.88484
lfoot 41.48 5.78152
ltoes -0.355429
327
root 10.2326 17.3555 0.452059 -92.8302 39.1798 124.914
lowerback 21.8282 0.386004 14.3191
upperback 1.29895 4.37511 10.0519
thorax -10.5991 1.42501 1.96431
lowerneck -18.5274 -9.2517 -19.9839
upperneck 12.7116 -12.3423 26.7867
head 10.4447 -4.67534 11.3589
rclavicle 8.26944e-014 2.54444e-014
rhumerus 61.52 -35.0761 -33.6871
rradius 38.0768
rwrist 19.5441
rhand -65.5793 -77.5062
rfingers 7.12502
rthumb -37.4454 103.454
lclavicle 8.26944e-014 2.54444e-014
lhumerus 61.1953 35.0901 5.08158
lradius 37.6936
lwrist -10.4495
lhand -46.8946 31.2315
lfingers 7.12502
lthumb -19.6059 60.2629
rfemur 224.695 45.6364 -186.665
rtibia 37.3005
rfoot 18.9578 -51.5533
rtoes -27.1846
lfemur 19.6334 -7.56764 -8.53648
ltibia 10.3269
lfoot 41.48 5.78152
ltoes -0.355429
328
root 10.2441 17.3499 0.139563 -90.9279 41.088 126.58
lowerback 21.5628 0.521604 13.8674
upperback 1.19089 4.42178 10.0781
thorax -10.6118 1.4729 2.22728
lowerneck -18.8704 -8.71025 -19.2
upperneck 13.8139 -11.6954 25.8475
head 10.5555 -4.33559 11.0014
rclavicle -1.52667e-013 -3.49861e-014
rhumerus 61.5265 -33.2173 -32.2293
rradius 38.5392
rwrist 18.9811
rhand -65.6167 -78.6328
rfingers 7.12502
rthumb -37.4808 104.571
lclavicle -1.52667e-013 -3.49861e-014
lhumerus 58.738 33.9634 2.71666
lradius 37.9979
lwrist -9.10131
lhand -46.0842 31.6882
lfingers 7.12502
lthumb -18.8267 60.7971
rfemur 224.914 45.4131 -184.995
rtibia 37.7632
rfoot 17.6222 -52.1662
rtoes -26.0718
lfemur 18.3231 -6.85195 -8.94073
ltibia 13.1504
lfoot 41.48 5.78152
ltoes -0.355429
329
root 10.257 17.343 -0.178766 -88.6795 42.8063 128.651
lowerback 21.2424 0.649635 13.6723
upperback 1.19208 4.47962 10.0708
thorax -10.442 1.52098 2.30622
lowerneck -19.1241 -8.28514 -18.9172
upperneck 14.6804 -11.1837 25.5445
head 10.7189 -4.06014 10.9825
rclavicle -1.52667e-013 -3.49861e-014
rhumerus 61.5265 -33.2173 -32.2293
rradius 38.5392
rwrist 18.9811
rhand -65.6167 -78.6328
rfingers 7.12502
rthumb -37.4808 104.571
lclavicle 1.49486e-013 7.79236e-014
lhumerus 59.6461 32.9098 4.02763
lradius 36.4753
lwrist -10.3675
lhand -45.4975 30.0123
lfingers 7.12502
lthumb -18.2624 59.175
rfemur 224.592 44.9695 -183.753
rtibia 38.321
rfoot 17.9374 -52.3379
rtoes -25.9663
lfemur 17.1593 -5.76934 -9.21005
ltibia 15.2972
lfoot 41.48 5.78152
ltoes -0.355429
330
root 10.2678 17.3349 -0.495214 -86.2139 44.623 130.868
lowerback 20.9509 0.842955 13.2309
upperback 1.17947 4.58131 10.1281
thorax -10.3284 1.60072 2.58119
lowerneck -19.4333 -7.69291 -18.2122
upperneck 15.5738 -10.4545 24.8051
head 10.7818 -3.68608 10.7275
rclavicle -1.52667e-013 -3.49861e-014
rhumerus 61.5265 -33.2173 -32.2293
rradius 38.5392
rwrist 18.9811
rhand -65.6167 -78.6328
rfingers 7.12502
rthumb -37.4808 104.571
lclavicle -2.20253e-013 -6.20208e-014
lhumerus 59.7208 31.3192 4.74154
lradius 35.1072
lwrist -9.41662
lhand -46.7816 33.2619
lfingers 7.12502
lthumb -19.4973 62.3043
rfemur 224.903 45.1086 -181.559
rtibia 38.9337
rfoot 18.7787 -52.4644
rtoes -24.9342
lfemur 15.89 -4.65508 -9.72196
ltibia 17.0375
lfoot 41.48 5.78152
ltoes -0.355429
331
root 10.2769 17.3242 -0.81795 -83.7299 46.2775 133.182
lowerback 20.7484 0.964555 13.0521
upperback 1.22477 4.65555 10.1851
thorax -10.1789 1.65655 2.72011
lowerneck -19.719 -7.16352 -17.5856
upperneck 16.3725 -9.75119 23.8875
head 10.8174 -3.35322 10.3952
rclavicle -1.52667e-013 -3.49861e-014
rhumerus 61.5265 -33.2173 -32.2293
rradius 38.5392
rwrist 18.9811
rhand -65.6167 -78.6328
rfingers 7.12502
rthumb -37.4808 104.571
lclavicle 7.71285e-014 -1.59028e-015
lhumerus 57.7096 29.676 3.73432
lradius 34.4823
lwrist -5.46784
lhand -50.7333 41.3128
lfingers 7.12502
lthumb -23.2928 69.9238
rfemur 224.699 45.381 -179.593
rtibia 39.6904
rfoot 19.9425 -52.4967
rtoes -24.5732
lfemur 14.7137 -3.71581 -10.2462
ltibia 18.3808
lfoot 41.48 5.78152
ltoes -0.355429
332
root 10.2796 17.3143 -1.14891 -81.0115 47.8527 135.62
lowerback 20.5111 1.04921 13.1099
upperback 1.23259 4.73215 10.0895
thorax -10.0197 1.69862 2.55763
lowerneck -20.1923 -6.59894 -16.7538
upperneck 17.3294 -9.09517 23.18
head 10.9842 -3.00172 10.1232
rclavicle -1.52667e-013 -3.49861e-014
rhumerus 61.5265 -33.2173 -32.2293
rradius 38.5392
rwrist 18.9811
rhand -65.6167 -78.6328
rfingers 7.12502
rthumb -37.4808 104.571
lclavicle -1.34378e-013 -1.59028e-015
lhumerus 57.8028 29.2306 6.48283
lradius 33.0716
lwrist -5.46524
lhand -54.8458 50.4353
lfingers 7.12502
lthumb -27.2327 78.4894
rfemur 224.55 45.976 -177.377
rtibia 40.561
rfoot 20.5494 -52.7617
rtoes -25.1925
lfemur 13.3183 -2.96345 -10.9137
ltibia 19.5082
lfoot 41.48 5.78152
ltoes -0.355429
